# xmcd
#
# Track frame offsets: 
#        150
#        20209
#        39169
#        66395
#        85686
#        109598
#        125243
#        139065
#        157616
#        185233
#        209082
#        223492
#
# Disc length: 3169 seconds
#
# Revision: 0
# Processed by: cddbd v1.5.2PL0 Copyright (c) Steve Scherf et al.
# Submitted via: ExactAudioCopy v0.95b4
#
DISCID=b90c5f0c
DTITLE=Андрей Козловский - Мой блюз
DYEAR=2003
DGENRE=
TTITLE0=Не горюй
TTITLE1=Монета
TTITLE2=Колыбельная
TTITLE3=Очки-тапочки*
TTITLE4=Она была дольше со мной (чем со всеми)
TTITLE5=Вниз по Золотухе
TTITLE6=Кривой автомобиль
TTITLE7=возьми себя в руки
TTITLE8=полный вперёд
TTITLE9=Пурга в пустыне (инстр)
TTITLE10=Заклинатель змей**
TTITLE11=Не горюй! (аккустическая версия)
EXTD=
EXTT0=
EXTT1=
EXTT2=
EXTT3=
EXTT4=
EXTT5=
EXTT6=
EXTT7=
EXTT8=
EXTT9=
EXTT10=
EXTT11=
PLAYORDER=
